<svg height="512" viewBox="0 0 128 128" width="512" xmlns="http://www.w3.org/2000/svg"><g><path d="m20.962 107.038a7.292 7.292 0 0 0 10.311 0l22.559-22.559a36.048 36.048 0 1 0 -10.311-10.311l-22.559 22.559a7.292 7.292 0 0 0 0 10.311z" fill="#298aff"/><circle cx="73.644" cy="54.356" fill="#cacaca" r="23.391"/></g><g fill="#490599"><path d="m91.421 36.579a25.137 25.137 0 1 0 7.365 17.777 24.975 24.975 0 0 0 -7.365-17.777zm-2.474 33.08a21.641 21.641 0 1 1 6.339-15.3 21.5 21.5 0 0 1 -6.339 15.3z"/><path d="m100.372 27.628a37.8 37.8 0 0 0 -59.078 46.292l-21.569 21.569a9.041 9.041 0 0 0 12.786 12.786l21.569-21.569a38.124 38.124 0 0 0 31.395 3.557 1.75 1.75 0 1 0 -1.093-3.325 34.567 34.567 0 0 1 -29.582-3.919 1.749 1.749 0 0 0 -2.2.223l-22.564 22.558a5.542 5.542 0 0 1 -7.836-7.836l22.558-22.558a1.75 1.75 0 0 0 .223-2.2 34.3 34.3 0 1 1 59.69-4.206 33.631 33.631 0 0 1 -1.631 3.046 1.751 1.751 0 0 0 3 1.807 37.792 37.792 0 0 0 -5.667-46.221z"/><path d="m96.6 79.843q-.346.312-.7.613a1.75 1.75 0 1 0 2.274 2.66q.387-.332.766-.673a1.75 1.75 0 1 0 -2.342-2.6z"/></g></svg>